<svg width="24" height="24" viewBox="0 0 24 24" fill="none" xmlns="http://www.w3.org/2000/svg">
<rect x="3" y="2" width="5.99999" height="3" fill="#353556"/>
<rect x="9" y="5" width="5.99999" height="3" fill="#353556"/>
<rect y="5" width="3" height="8.99999" fill="#353556"/>
<rect x="3" y="13.9999" width="3" height="3" fill="#353556"/>
<rect x="5.99994" y="17" width="3" height="3" fill="#353556"/>
<rect x="9" y="20" width="3" height="3" fill="#353556"/>
<rect width="5.99999" height="3" transform="matrix(-1 0 0 1 21 2)" fill="#353556"/>
<rect width="3" height="8.99999" transform="matrix(-1 0 0 1 24 5)" fill="#353556"/>
<rect width="3" height="3" transform="matrix(-1 0 0 1 21 13.9999)" fill="#353556"/>
<rect width="3" height="3" transform="matrix(-1 0 0 1 17.9999 17)" fill="#353556"/>
<rect width="3" height="3" transform="matrix(-1 0 0 1 15 20)" fill="#353556"/>
</svg>
