<svg width="24" height="24" viewBox="0 0 24 24" fill="none" xmlns="http://www.w3.org/2000/svg">
<rect x="3" y="2" width="5.99999" height="3" fill="#AF4040"/>
<rect y="8" width="3" height="3" fill="#353556"/>
<rect y="5" width="3" height="3" fill="#A82B2D"/>
<rect y="11" width="3" height="3" fill="#A82B2D"/>
<rect x="3" y="13.9999" width="3" height="3" fill="#353556"/>
<rect x="5.99994" y="17" width="3" height="3" fill="#353556"/>
<rect x="9" y="20" width="3" height="3" fill="#881616"/>
<rect width="3" height="3" transform="matrix(-1 0 0 1 21 2)" fill="#353556"/>
<rect width="3" height="3" transform="matrix(-1 0 0 1 15 5)" fill="#A82B2D"/>
<rect width="3" height="3" transform="matrix(-1 0 0 1 18 2)" fill="#A82B2D"/>
<rect width="3" height="3" transform="matrix(-1 0 0 1 12 5)" fill="#881616"/>
<rect width="3" height="6" transform="matrix(-1 0 0 1 24 5)" fill="#353556"/>
<rect width="3" height="3" transform="matrix(-1 0 0 1 21 13.9999)" fill="#353556"/>
<rect width="3" height="3" transform="matrix(-1 0 0 1 24 11)" fill="#A82B2D"/>
<rect width="3" height="3" transform="matrix(-1 0 0 1 17.9999 17)" fill="#353556"/>
<rect width="3" height="3" transform="matrix(-1 0 0 1 15 20)" fill="#353556"/>
<rect x="15" y="5" width="6" height="9" fill="#D93232"/>
<rect x="9" y="17" width="6" height="3" fill="#D93232"/>
<rect x="12" y="14" width="6" height="3" fill="#D93232"/>
<rect x="9" y="11" width="3" height="6" fill="#E63F38"/>
<rect x="12" y="8" width="3" height="6" fill="#E63F38"/>
<rect x="6" y="8" width="6" height="3" fill="#FF8575"/>
<rect x="3" y="8" width="3" height="6" fill="#FC5454"/>
<rect x="3.03046" y="4.98499" width="3" height="3" transform="rotate(0.580243 3.03046 4.98499)" fill="#FFA0A0"/>
<rect x="6.0304" y="5" width="3" height="3" transform="rotate(0.580243 6.0304 5)" fill="white"/>
<rect x="6" y="11" width="3" height="6" fill="#FC5454"/>
</svg>
